<?xml version="1.0" encoding="utf-8"?>
<!-- Generator: Adobe Illustrator 19.2.1, SVG Export Plug-In . SVG Version: 6.00 Build 0)  -->
<svg version="1.1" id="Layer_1" xmlns="http://www.w3.org/2000/svg" xmlns:xlink="http://www.w3.org/1999/xlink" x="0px" y="0px"
	 viewBox="0 0 226 27" style="enable-background:new 0 0 226 27;" xml:space="preserve">
<style type="text/css">
	.st0{fill:#353326;}
	.st1{fill:#EAE2D7;}
	.st2{fill-rule:evenodd;clip-rule:evenodd;fill:#66625D;}
</style>
<polygon class="st0" points="212.5,27 226,13.5 212.5,0 13.5,0 0,13.5 13.5,27 "/>
<polygon class="st1" points="13.9,26 1.4,13.5 13.9,1 212.1,1 224.6,13.5 212.1,26 "/>
<polygon class="st0" points="14.3,25 2.8,13.5 14.3,2 211.7,2 223.2,13.5 211.7,25 "/>
<g>
	<path class="st2" d="M23.6,12.2c1.8,0.2,2.2-3.8-0.3-3.5C21.2,9,21.5,12,23.6,12.2C24,12.3,23.1,12.2,23.6,12.2z"/>
	<path class="st2" d="M25.8,23.3c0.2-2.2-3.3-2.2-3,0.3C23.1,25.8,26.1,24.5,25.8,23.3C25.8,22.8,25.9,23.6,25.8,23.3z"/>
	<path class="st2" d="M196,14.6c-0.4,0.2-1,1.1-1.2,1.4c-0.4,0.4-0.9,0-0.8,0.8c0.2,1.3,2.7,0.3,3.3,0
		C196.7,16.2,196.2,15.4,196,14.6C195.7,14.8,196.3,15.4,196,14.6z"/>
	<path class="st2" d="M197.5,26.4c-1,0.1-4.1-1.7-2-2.7c0.5-0.2,1.8,0,2,0.6C197.8,25.5,196,24.7,197.5,26.4
		C197.3,26.4,197.4,26.2,197.5,26.4z"/>
	<path class="st2" d="M31.2,22.8c0,2,2,0.2,1.9-1.1C32.9,19.4,31.2,21.6,31.2,22.8C31.2,23.3,31.2,22.5,31.2,22.8z"/>
	<path class="st2" d="M20.5,6.9c-0.7,0-1.1,0.7-0.7,1.4c0.1,0.2,1.4,0.9,1.5,0.9C21.7,9.1,21.8,6.9,20.5,6.9
		C20.4,6.9,21,6.9,20.5,6.9z"/>
	<path class="st2" d="M23.4,14.5c0,1.9,2.8,1,1.6-0.6C24.3,12.9,23.5,13.3,23.4,14.5C23.4,15,23.4,14.5,23.4,14.5z"/>
	<path class="st2" d="M204.9,23.5c0-1.4,1.8-1.4,1.9-0.2C207,24.8,205,24.8,204.9,23.5C204.9,23,204.9,23.5,204.9,23.5z"/>
	<path class="st2" d="M61.4,0.1c2,0,0.2,2.1-0.8,1.7C59.5,1.2,60.3-0.1,61.4,0.1z"/>
	<path class="st2" d="M185,24.2c0.8-0.1,0.9,2.1-0.4,1.8C183.5,25.8,184.1,24.3,185,24.2C185.2,24.2,184.9,24.2,185,24.2z"/>
	<path class="st2" d="M15.4,23.6c-1.2,0-1.1-2.2,0.1-1.7C16.3,22.2,16.5,23.6,15.4,23.6z"/>
	<path class="st2" d="M33.4,15.4c0-1.2-2-0.9-1.6,0.3C32.1,16.6,33.4,16.4,33.4,15.4C33.4,14.9,33.4,15.9,33.4,15.4z"/>
	<path class="st2" d="M37,3.4c-1,0-1-1.8,0.1-1.7c0.9,0.1,0.8,1.2,0.5,1.6C37.2,3.6,37.3,3.4,37,3.4z"/>
	<path class="st2" d="M194.3,21.3c0-1.1,1.6-1,1.5,0C195.7,22.3,194.3,22.4,194.3,21.3C194.3,20.9,194.3,21.8,194.3,21.3z"/>
	<path class="st2" d="M217,18.8c0,1-1.5,1.3-1.3,0C215.8,17.8,216.8,17.8,217,18.8C217,19.3,217,18.7,217,18.8z"/>
	<path class="st2" d="M59,24.4c1,0,0.9-1.6-0.1-1.5C58,23,58.1,24.4,59,24.4C59.5,24.4,58.6,24.4,59,24.4z"/>
	<path class="st2" d="M201.8,20.3c0,0.5-1.3,1.1-1.6,0.7C199.7,20.2,201.8,18.7,201.8,20.3C201.8,20.8,201.8,19.8,201.8,20.3z"/>
	<path class="st2" d="M200.7,22.5c0,0.8-1.4,0.9-1.6,0.2C198.9,21.9,200.7,21.5,200.7,22.5C200.7,22.7,200.7,22.2,200.7,22.5z"/>
	<path class="st2" d="M71.2,7.5c0.1,1.2,1.4,0.5,1.1-0.3C71.7,6.1,71.2,7.5,71.2,7.5C71.2,7.6,71.2,7.5,71.2,7.5z"/>
	<path class="st2" d="M211.7,23.4c-0.9,0-0.8-1.4,0.2-1.4C212.4,22.1,212.4,23.4,211.7,23.4C211.2,23.5,211.9,23.4,211.7,23.4z"/>
	<path class="st2" d="M177.9,5c0-0.4,0.7-1.2,1.2-0.8C179.7,4.7,177.9,6.6,177.9,5C177.9,4.6,177.9,5.1,177.9,5z"/>
	<path class="st2" d="M186.9,21.7c-0.8,0-0.6-1.4,0.2-1.2C187.9,20.5,187.6,21.7,186.9,21.7C186.5,21.7,187.2,21.7,186.9,21.7z"/>
	<path class="st2" d="M218.6,12c0.7,0,0.2,1-0.2,1.1C217.6,13.3,217.7,12,218.6,12C219,12,218.2,12,218.6,12z"/>
	<path class="st2" d="M173.1,25.5c-0.1,0.5-0.6,0.9-0.9,0.3C171.8,25,173.2,24.1,173.1,25.5C173.1,25.5,173.2,25.2,173.1,25.5z"/>
	<path class="st2" d="M203.6,24.7c1.4,0,0,1.1,0,1.1C203.6,25.7,202.4,24.7,203.6,24.7C204,24.7,203.3,24.7,203.6,24.7z"/>
	<path class="st2" d="M51.8,3.4c0,0.2-0.4,1.3-0.9,0.8C50.7,3.9,51.2,2.2,51.8,3.4z"/>
	<path class="st2" d="M190.5,22.5c0.9,0.1,0.4,1.4,0.1,1.3C190.1,23.6,189.6,22.5,190.5,22.5C190.8,22.5,190.4,22.5,190.5,22.5z"/>
	<path class="st2" d="M217.2,10.7c-1.2,0,0-1.1,0-1.1C217.2,9.6,218.5,10.8,217.2,10.7C216.9,10.7,217.4,10.7,217.2,10.7z"/>
	<path class="st2" d="M49.4,3.2c1.2,0-0.1,1.1-0.1,1.1C49.4,4.3,48.3,3.2,49.4,3.2C49.7,3.2,49.1,3.2,49.4,3.2z"/>
	<path class="st2" d="M32.8,17.5c1.1-0.1-0.1-0.9-0.1-1.1C32.7,16.5,31.7,17.5,32.8,17.5C33.1,17.5,32.4,17.5,32.8,17.5z"/>
	<path class="st2" d="M9.2,18.2c0-1.2,0.9,0,1,0C10.2,18.2,9.2,19.5,9.2,18.2C9.2,17.9,9.2,18.5,9.2,18.2z"/>
	<path class="st2" d="M64.4,17c0.1,1.5,1.2-0.7,0.8-0.5C65.1,16.6,64.6,16.1,64.4,17C64.4,17.2,64.4,16.7,64.4,17z"/>
	<path class="st2" d="M176.5,4.9c1-0.1,0,1,0,1C176.5,5.8,175.4,4.9,176.5,4.9C176.7,4.9,176.2,4.9,176.5,4.9z"/>
	<path class="st2" d="M216.1,16.1c0,1-0.8,0.3-0.8,0.3C215.1,16.4,216.1,14.7,216.1,16.1C216.1,16.2,216.1,15.9,216.1,16.1z"/>
	<path class="st2" d="M52.9,2.8c-0.1,0.3,0,1.8-0.5,0.4C52,2.4,52.8,2,52.9,2.8C52.8,2.9,52.8,2.5,52.9,2.8z"/>
	<path class="st2" d="M217.3,15.9c0,1-0.9,0-1,0C216.4,15.9,217.3,14.8,217.3,15.9C217.3,16.2,217.3,15.6,217.3,15.9z"/>
	<path class="st2" d="M16,5.6c0,1.1-1,0-0.8,0C15.1,5.5,15.9,4.3,16,5.6C16,5.8,16,5.3,16,5.6z"/>
	<path class="st2" d="M189.9,21.6c0-1.1,0.9,0,0.9,0C190.8,21.6,189.9,22.7,189.9,21.6z"/>
	<path class="st2" d="M174.2,24.3c0,0.8-0.9-0.2-1.1-0.3C173.1,24,174.2,23.2,174.2,24.3C174.2,24.4,174.2,24.2,174.2,24.3z"/>
	<path class="st2" d="M182.4,3.8c0,1.1-0.9,0-0.8,0C181.6,3.8,182.5,2.8,182.4,3.8C182.4,4.1,182.4,3.6,182.4,3.8z"/>
	<path class="st2" d="M184.3,22.2c0-1.3,1.1,0.2,0.7,0.1C184.9,22.3,184.4,23.4,184.3,22.2C184.3,21.9,184.4,22.3,184.3,22.2z"/>
	<path class="st2" d="M62.8,22.9c-0.1,0-1,0.4-0.8,0.7C62.6,24.4,63.7,22.9,62.8,22.9z"/>
	<path class="st2" d="M183.5,22.9c-1,0,0-0.9,0-0.9C183.5,22.1,184.5,22.9,183.5,22.9C183.3,22.9,183.7,22.9,183.5,22.9z"/>
	<path class="st2" d="M46,20.7c-1,0,0,0.9,0,0.9C46,21.6,47,20.7,46,20.7C45.8,20.7,46.2,20.7,46,20.7z"/>
	<path class="st2" d="M12.1,9.8c-1,0-0.1-0.8-0.1-0.9C12,8.9,13,9.8,12.1,9.8C11.8,9.8,12.3,9.8,12.1,9.8z"/>
	<path class="st2" d="M20.2,22.4c-0.1,0.4,0,0.5,0.3,0.5C21.5,21.9,20.2,21.7,20.2,22.4C20.3,22.6,20.2,22.3,20.2,22.4z"/>
	<path class="st2" d="M198.5,22.6c-0.9,0,0.1-0.8,0.1-0.8C198.5,21.8,199.5,22.7,198.5,22.6C198.2,22.6,198.7,22.6,198.5,22.6z"/>
	<path class="st2" d="M200.6,26.3c0-0.9,1-0.1,0.8-0.1C201.3,26.3,200.6,27.3,200.6,26.3C200.6,26.2,200.6,26.5,200.6,26.3z"/>
	<path class="st2" d="M49.5,5.7c1.6,0.5-0.8,0.9-0.4,0.2C49.3,5.8,49.4,5.8,49.5,5.7C49.6,5.7,49.3,5.7,49.5,5.7z"/>
	<path class="st2" d="M57.2,3.3c-0.6,0,0-1.3,0.3-1.2C57.8,2.2,57.4,3.3,57.2,3.3C57,3.3,57.3,3.3,57.2,3.3z"/>
	<path class="st2" d="M55.5,6c-0.1,0.7-0.6-0.2-0.7-0.2C55.1,5.9,55.5,4.8,55.5,6C55.5,6,55.5,5.6,55.5,6z"/>
	<path class="st2" d="M193.5,15.3c0-0.9,0.6-0.1,0.7-0.1C194.2,15.2,193.5,16.2,193.5,15.3C193.5,15,193.5,15.5,193.5,15.3z"/>
	<path class="st2" d="M50.7,19.1c0-0.9-0.7,0-0.7,0C50.1,19,50.7,20,50.7,19.1C50.7,18.9,50.7,19.3,50.7,19.1z"/>
	<path class="st2" d="M58,2c0-0.8,0.5-0.1,0.6-0.1C58.9,1.9,58,3.2,58,2C58,1.8,58,2.3,58,2z"/>
	<path class="st2" d="M214.8,17.9c0-0.8,0.7,0,0.7,0C215.5,17.9,214.8,18.8,214.8,17.9C214.8,17.7,214.8,18.1,214.8,17.9z"/>
	<path class="st2" d="M45.6,0c0.8,0-0.1,0.7-0.1,0.7C45.5,0.7,44.7,0,45.6,0C45.8,0,45.4,0,45.6,0z"/>
	<path class="st2" d="M200.1,19.5c-0.8,0-0.2-0.7-0.2-0.7C199.9,18.8,200.9,19.5,200.1,19.5C199.9,19.5,200.3,19.5,200.1,19.5z"/>
	<path class="st2" d="M18.4,13.3c0.7,0-0.1,0.8-0.1,0.7C18.4,14,17.7,13.3,18.4,13.3C18.6,13.3,18.2,13.3,18.4,13.3z"/>
	<path class="st2" d="M26.7,12.9c0,0.8,0.7,0.1,0.7,0.1C27.5,13,26.8,12.1,26.7,12.9C26.7,13.1,26.8,12.8,26.7,12.9z"/>
	<path class="st2" d="M16.8,10.6c0-1.1,0.9,0.3,0.6,0.2C17.3,10.8,16.8,11.3,16.8,10.6C16.8,10.4,16.8,10.8,16.8,10.6z"/>
	<path class="st2" d="M71.1,21.6c0.5,0,0.2-0.7-0.1-0.8C70.6,20.9,70.8,21.6,71.1,21.6C71.3,21.6,70.9,21.6,71.1,21.6z"/>
	<path class="st2" d="M191.1,26.2c-0.1,1.1-0.8-0.1-0.5-0.1C190.8,26.1,191,25.7,191.1,26.2C191.1,26.4,191.1,26.1,191.1,26.2z"/>
	<path class="st2" d="M178.3,25.2c0,0.7-0.6,0-0.6,0C177.7,25.2,178.3,24.3,178.3,25.2C178.3,25.3,178.3,25,178.3,25.2z"/>
	<path class="st2" d="M52.5,23.2c0.8,0-0.4-1.2-0.5-0.4C52.1,23.1,52.3,23.2,52.5,23.2C52.8,23.2,52.3,23.2,52.5,23.2z"/>
	<path class="st2" d="M217.6,13.1c0.8-0.1,0,0.7,0,0.7C217.6,13.6,216.9,13.1,217.6,13.1C217.7,13.1,217.4,13.1,217.6,13.1z"/>
	<path class="st2" d="M177.4,10.3c0,0.7-0.8-0.1-0.6-0.1C176.9,10.2,177.4,9.7,177.4,10.3C177.4,10.5,177.4,10.1,177.4,10.3z"/>
	<path class="st2" d="M73,14.8c0,1,1.2-0.4,0.3-0.3C73.2,14.6,73.1,14.7,73,14.8C73,15,73,14.6,73,14.8z"/>
	<path class="st2" d="M44.2,5.1c1,0-0.3,1.2-0.3,0.2C44,5.3,44.1,5.2,44.2,5.1z"/>
	<path class="st2" d="M195.1,2.8c0.1-0.1,0.2-0.2,0.2-0.4C196.3,2.4,195.1,3.9,195.1,2.8C195.1,2.6,195.1,3.1,195.1,2.8z"/>
	<path class="st2" d="M7.6,11.5c0-1,1.1,0.4,0.3,0.4C7.8,11.8,7.7,11.6,7.6,11.5z"/>
	<path class="st2" d="M222.1,12.4c-0.8,0-0.5-1.4,0.2-1.3C223.1,11.2,222.9,12.4,222.1,12.4C221.8,12.4,222.5,12.4,222.1,12.4z"/>
	<path class="st2" d="M178.9,7.6c-0.3,0-0.5-0.7,0-0.7C179.3,6.9,179.2,7.6,178.9,7.6C178.7,7.6,179,7.6,178.9,7.6z"/>
	<path class="st2" d="M34.2,18.1c-0.9,0,0.2,0.8,0.1,0.5C34.4,18.6,34.8,18.1,34.2,18.1C34.1,18.1,34.4,18.1,34.2,18.1z"/>
	<path class="st2" d="M199.5,26.4c0,0.7-0.5,0.2-0.5,0.2C198.8,26.8,199.4,25.6,199.5,26.4C199.5,26.7,199.5,26.3,199.5,26.4z"/>
	<path class="st2" d="M174.6,9.4c-0.9,0.1,0.2-0.9,0.1-0.6C174.8,8.9,175.2,9.3,174.6,9.4C174.5,9.4,174.8,9.4,174.6,9.4z"/>
	<path class="st2" d="M47.4,5.2c0,0.7-0.5,0-0.6,0C46.8,5.2,47.4,4.3,47.4,5.2C47.4,5.3,47.4,5,47.4,5.2z"/>
	<path class="st2" d="M218.7,10.2c0-1,1,0.3,0.2,0.3C218.8,10.4,218.8,10.3,218.7,10.2C218.7,9.9,218.7,10.4,218.7,10.2z"/>
	<path class="st2" d="M21.4,4.6c-0.6,0,0-0.5,0-0.6C21.4,4,22.3,4.7,21.4,4.6C21.3,4.6,21.6,4.6,21.4,4.6z"/>
	<path class="st2" d="M47.4,7c0,0.6-0.9,0.1-0.5-0.2C47.2,6.6,47.3,6.7,47.4,7C47.4,7.2,47.4,6.9,47.4,7z"/>
	<path class="st2" d="M55.8,3C55.9,2.9,56,2.8,56,2.7C56.8,2.7,55.8,4,55.8,3C55.8,2.9,55.8,3.3,55.8,3z"/>
	<path class="st2" d="M45.3,3.1c0-0.8,0.6,0.1,0.6,0.1C45.8,3.1,45.3,3.7,45.3,3.1C45.3,2.9,45.3,3.2,45.3,3.1z"/>
	<path class="st2" d="M44.8,19.9c0,0.8,0.6,0,0.6,0C45.3,19.9,44.8,19.3,44.8,19.9C44.8,20.1,44.8,19.8,44.8,19.9z"/>
	<path class="st2" d="M27.1,22.7c-0.6,0-0.2,0.5-0.2,0.6C26.9,23.5,27.9,22.7,27.1,22.7C26.9,22.7,27.2,22.7,27.1,22.7z"/>
	<path class="st2" d="M29.8,19.9c0.8-0.1-0.5-1-0.4-0.2C29.5,19.7,29.6,19.8,29.8,19.9C29.9,19.9,29.5,19.9,29.8,19.9z"/>
	<path class="st2" d="M212,6.1c-0.1,0.1-0.2,0.2-0.3,0.3c-0.4-0.2-0.4-0.4,0-0.6C211.8,6,211.9,6,212,6.1z"/>
	<path class="st2" d="M29.4,21.6c0.1,0.1,0.2,0.2,0.2,0.3c0.3,0,0.4-0.6,0.1-0.6C29.6,21.3,29.5,21.4,29.4,21.6
		C29.4,21.7,29.4,21.4,29.4,21.6z"/>
	<path class="st2" d="M22.4,23.4c0-0.6-0.5-0.1-0.5-0.1C21.9,23.4,22.4,24.3,22.4,23.4C22.4,23.3,22.4,23.6,22.4,23.4z"/>
	<path class="st2" d="M69,24.1c0.1,0.8,0.8-0.4,0.2-0.4C69.1,23.7,69,23.9,69,24.1C69,24.2,69,23.9,69,24.1z"/>
	<path class="st2" d="M12,7.2c-0.2,0.3-0.4,0.3-0.6-0.1C11.6,6.8,11.8,6.8,12,7.2C12,7.3,12,7,12,7.2z"/>
	<path class="st2" d="M27.1,11.8c0.3-0.2,0.3-0.4,0-0.6C26.7,11.2,26.8,11.8,27.1,11.8C27.3,11.8,27,11.8,27.1,11.8z"/>
	<path class="st2" d="M28.2,2.4c-0.1,0.1-0.2,0.2-0.3,0.3C27.2,2.6,28.3,1.6,28.2,2.4C28.2,2.5,28.2,2.2,28.2,2.4z"/>
	<path class="st2" d="M29.3,20.8c0.4,0,0-0.5,0-0.5C29.3,20.2,28.4,20.8,29.3,20.8C29.4,20.8,29.1,20.8,29.3,20.8z"/>
	<path class="st2" d="M19.6,3c0,0.2-0.5,0.4-0.6,0.2C18.8,3,19.6,2.7,19.6,3C19.6,3.2,19.6,2.9,19.6,3z"/>
	<path class="st2" d="M31.7,11.8c0.1,0.6,0.6-0.1,0.5-0.1C32,11.7,31.7,11.1,31.7,11.8C31.7,12,31.7,11.7,31.7,11.8z"/>
	<path class="st2" d="M208.6,25.8c0,0.2-0.1,0.2-0.2,0.3c-0.3-0.2-0.3-0.4,0-0.6C208.5,25.5,208.6,25.6,208.6,25.8z"/>
	<path class="st2" d="M182.8,26.2c-0.1-0.1-0.2-0.2-0.3-0.2c0.2-0.3,0.3-0.3,0.5,0C183,26,182.9,26.1,182.8,26.2
		C182.7,26.2,182.9,26.2,182.8,26.2z"/>
	<path class="st2" d="M217.1,8.9c0,0.4-0.5,0.1-0.5,0.1C216.5,9,217,8.2,217.1,8.9C217.1,9,217,8.7,217.1,8.9z"/>
	<path class="st2" d="M172.6,7.4c0,0.2-0.1,0.3-0.3,0.3C171.8,7.5,172.6,6.7,172.6,7.4C172.6,7.6,172.6,7.3,172.6,7.4z"/>
	<path class="st2" d="M172.6,21c-0.1,0.1-0.2,0.2-0.2,0.3C171.8,21.3,172.5,20.2,172.6,21C172.6,21.2,172.6,20.9,172.6,21z"/>
	<path class="st2" d="M12.6,16.7c-0.1,0.1-0.2,0.2-0.2,0.3c-0.3-0.2-0.3-0.3,0-0.5C12.5,16.5,12.5,16.6,12.6,16.7
		C12.6,16.8,12.6,16.6,12.6,16.7z"/>
	<path class="st2" d="M65.2,22.1c0,0.2,0.1,0.3,0.2,0.3C66.1,22.4,65.2,21.4,65.2,22.1C65.2,22.2,65.2,22,65.2,22.1z"/>
	<path class="st2" d="M50,2c0.2,0,0.3,0.1,0.3,0.3C50.2,2.8,49.3,2.2,50,2C50.1,2,49.8,2.1,50,2z"/>
	<path class="st2" d="M181,7c0.6,0.1-0.3,0.8-0.3,0.3C180.7,7.1,180.8,7,181,7C181.1,7,180.9,7,181,7z"/>
	<path class="st2" d="M200,24.5c0,0.6-0.9-0.2-0.4-0.3C199.9,24.2,200,24.3,200,24.5C200.1,24.6,200,24.4,200,24.5z"/>
	<path class="st2" d="M34.3,20.1c0.1,0.1,0.2,0.2,0.2,0.2C35.2,20.4,34.3,19.3,34.3,20.1C34.3,20.2,34.3,19.9,34.3,20.1z"/>
	<path class="st2" d="M190,17.7c0.3,0.1,0.1,0.6-0.1,0.5C189.5,18.1,189.8,17.7,190,17.7C190.1,17.7,189.9,17.7,190,17.7z"/>
	<path class="st2" d="M25.5,25.1c0.1,0.3,0.3,0.3,0.4,0C25.9,24.6,25.5,24.8,25.5,25.1C25.5,25.2,25.5,24.9,25.5,25.1z"/>
	<path class="st2" d="M37.2,4.7c-0.3-0.2-0.3-0.3,0-0.5C37.6,4.2,37.5,4.7,37.2,4.7C37.1,4.7,37.3,4.7,37.2,4.7z"/>
	<path class="st2" d="M55.6,0.1c0.3,0.1,0.3,0.3,0,0.4C55.4,0.6,55.2,0.1,55.6,0.1C55.7,0.1,55.4,0.1,55.6,0.1z"/>
	<path class="st2" d="M185.2,6.5c0,0.5-0.7-0.2-0.4-0.3C185,6.1,185.1,6.4,185.2,6.5C185.2,6.6,185.1,6.5,185.2,6.5z"/>
	<path class="st2" d="M15.4,18.1c-0.1,0.3-0.3,0.2-0.4,0C15,17.7,15.4,17.9,15.4,18.1C15.4,18.2,15.4,18,15.4,18.1z"/>
	<path class="st2" d="M42.7,2c-0.5-0.1,0.2-0.7,0.2-0.3C42.9,1.9,42.8,2,42.7,2C42.5,2,42.8,2,42.7,2z"/>
	<path class="st2" d="M177.6,26.8c-0.2,0.3-0.3,0.2-0.4,0C177.3,26.5,177.5,26.5,177.6,26.8C177.6,26.9,177.6,26.7,177.6,26.8z"/>
	<path class="st2" d="M4.6,13.1c-0.1,0.5-0.8-0.2-0.2-0.3C4.5,12.8,4.6,12.9,4.6,13.1C4.5,13.2,4.6,13,4.6,13.1z"/>
	<path class="st2" d="M224.2,12.8c-0.1,1-0.8,0.1-0.9,0.2C223.3,13,224,11.9,224.2,12.8C224.2,13.1,224.1,12.6,224.2,12.8z"/>
	<path class="st2" d="M210.5,5.2c-0.3-0.1-0.3-0.3,0-0.4C210.7,4.9,210.7,5.1,210.5,5.2C210.3,5.2,210.6,5.2,210.5,5.2z"/>
	<path class="st2" d="M31.4,16.9c0.1,0.3,0.2,0.3,0.4,0.1C31.6,16.7,31.5,16.6,31.4,16.9C31.4,17,31.4,16.8,31.4,16.9z"/>
	<path class="st2" d="M59.1,5.4c-0.3-0.1-0.3-0.2,0-0.4C59.4,5.1,59.4,5.3,59.1,5.4C59,5.4,59.2,5.4,59.1,5.4z"/>
	<path class="st2" d="M189.3,20.8c-0.2,0.3-0.3,0.2-0.4,0C189.1,20.6,189.2,20.6,189.3,20.8C189.3,21,189.3,20.7,189.3,20.8z"/>
	<path class="st2" d="M6.3,13.2c-0.2-0.2-0.2-0.3,0.1-0.4C6.6,12.9,6.5,13.1,6.3,13.2C6.2,13.2,6.4,13.2,6.3,13.2z"/>
	<path class="st2" d="M214.2,21.7c0.3,0.1,0.3,0.3,0,0.4C213.9,22,213.9,21.9,214.2,21.7C214.3,21.7,214.1,21.7,214.2,21.7z"/>
	<path class="st2" d="M11.4,17.5c-0.1,0.3-0.3,0.3-0.4,0C11.2,17.2,11.3,17.2,11.4,17.5C11.4,17.6,11.4,17.4,11.4,17.5z"/>
</g>
</svg>
